<?xml version="1.0" encoding="UTF-8" standalone="no"?>
<svg
   xmlns:dc="http://purl.org/dc/elements/1.1/"
   xmlns:cc="http://creativecommons.org/ns#"
   xmlns:rdf="http://www.w3.org/1999/02/22-rdf-syntax-ns#"
   xmlns:svg="http://www.w3.org/2000/svg"
   xmlns="http://www.w3.org/2000/svg"
   xmlns:sodipodi="http://sodipodi.sourceforge.net/DTD/sodipodi-0.dtd"
   xmlns:inkscape="http://www.inkscape.org/namespaces/inkscape"
   viewBox="0 0 25 18.75"
   version="1.1"
   id="svg4"
   sodipodi:docname="envelope.svg"
   inkscape:version="0.92.4 5da689c313, 2019-01-14"
   width="25"
   height="18.75">
  <metadata
     id="metadata10">
    <rdf:RDF>
      <cc:Work
         rdf:about="">
        <dc:format>image/svg+xml</dc:format>
        <dc:type
           rdf:resource="http://purl.org/dc/dcmitype/StillImage" />
      </cc:Work>
    </rdf:RDF>
  </metadata>
  <defs
     id="defs8" />
  <sodipodi:namedview
     pagecolor="#ffffff"
     bordercolor="#666666"
     borderopacity="1"
     objecttolerance="10"
     gridtolerance="10"
     guidetolerance="10"
     inkscape:pageopacity="0"
     inkscape:pageshadow="2"
     inkscape:window-width="1920"
     inkscape:window-height="1062"
     id="namedview6"
     showgrid="false"
     inkscape:zoom="0.4609375"
     inkscape:cx="-708.33898"
     inkscape:cy="184.40678"
     inkscape:window-x="0"
     inkscape:window-y="0"
     inkscape:window-maximized="1"
     inkscape:current-layer="svg4" />
  <path
     d="M 24.526367,6.19141 C 24.716797,6.04004 25,6.18164 25,6.4209 v 9.98535 C 25,17.7002 23.950195,18.75 22.65625,18.75 H 2.34375 C 1.0498047,18.75 0,17.7002 0,16.40625 V 6.42578 C 0,6.18164 0.27832031,6.04492 0.47363281,6.19629 1.5673828,7.0459 3.0175781,8.125 7.9980469,11.74316 9.0283203,12.49512 10.766602,14.07715 12.5,14.06738 c 1.743164,0.0146 3.515625,-1.60156 4.506836,-2.32422 C 21.987305,8.125 23.432617,7.04102 24.526367,6.19141 Z M 12.5,12.5 c 1.132813,0.0195 2.763672,-1.42578 3.583984,-2.02148 C 22.563477,5.77637 23.056641,5.36621 24.550781,4.19434 24.833984,3.97461 25,3.63281 25,3.27148 V 2.34375 C 25,1.0498 23.950195,0 22.65625,0 H 2.34375 C 1.0498047,0 0,1.0498 0,2.34375 V 3.27148 C 0,3.63281 0.16601562,3.96973 0.44921875,4.19434 1.9433594,5.36133 2.4365234,5.77637 8.9160156,10.47852 9.7363281,11.07422 11.367188,12.51953 12.5,12.5 Z"
     id="path2"
     inkscape:connector-curvature="0"
     style="stroke-width:0.04882812" />
  <path
     style="fill:#ffffff;fill-opacity:1;stroke-width:0.10593221"
     d="M 11.684322,12.25497 C 11.105067,12.02151 11.003589,11.95261 7.9504985,9.7196 3.5468272,6.49879 0.53303252,4.21718 0.313258,3.93778 0.11882244,3.6906 0.0850927,3.51118 0.08707225,2.73465 0.08981195,1.65994 0.27972562,1.1444 0.86085166,0.63417 1.0729513,0.44794 1.4260382,0.2435 1.6454894,0.17985 1.9255585,0.09865 5.2363633,0.07352 12.752732,0.09565 l 10.708241,0.0315 0.44782,0.31036 c 0.662798,0.45935 0.986795,1.08366 1.046683,2.01685 0.07882,1.22817 -0.0062,1.37145 -1.491104,2.51371 -0.711019,0.54695 -2.150813,1.62398 -3.199541,2.3934 -1.048729,0.76943 -2.8125,2.06557 -3.919492,2.88033 -2.986941,2.19841 -3.573197,2.45163 -4.661017,2.0132 z"
     id="path817"
     inkscape:connector-curvature="0" />
  <path
     style="fill:#ffffff;fill-opacity:1;stroke-width:0.10593221"
     d="M 1.6482077,18.56749 C 1.0540126,18.35542 0.75094272,18.12432 0.42882582,17.63768 L 0.13771187,17.19789 0.10846957,11.70805 C 0.08208945,6.75555 0.09566212,6.21822 0.24713869,6.21822 c 0.0923513,0 0.53453572,0.27878 0.98263211,0.61951 0.6952035,0.52863 5.5008933,4.05919 8.0710769,5.92952 2.4368433,1.77329 3.9835703,1.75613 6.5148303,-0.0723 1.321599,-0.95464 6.790444,-4.98229 7.838943,-5.77315 0.518434,-0.39105 1.016547,-0.69677 1.106917,-0.67937 0.145161,0.0279 0.16808,0.61785 0.196664,5.06197 0.03769,5.85978 0.02999,5.93253 -0.705672,6.66503 -0.297258,0.29598 -0.664488,0.54107 -0.927956,0.61931 -0.663903,0.19715 -21.1206049,0.1771 -21.6763663,-0.0212 z"
     id="path819"
     inkscape:connector-curvature="0" />
</svg>
