<?xml version="1.0" encoding="UTF-8" standalone="no"?>
<svg
   xmlns:dc="http://purl.org/dc/elements/1.1/"
   xmlns:cc="http://creativecommons.org/ns#"
   xmlns:rdf="http://www.w3.org/1999/02/22-rdf-syntax-ns#"
   xmlns:svg="http://www.w3.org/2000/svg"
   xmlns="http://www.w3.org/2000/svg"
   xmlns:sodipodi="http://sodipodi.sourceforge.net/DTD/sodipodi-0.dtd"
   xmlns:inkscape="http://www.inkscape.org/namespaces/inkscape"
   viewBox="0 0 25 22.222219"
   version="1.1"
   id="svg4"
   sodipodi:docname="map.svg"
   inkscape:version="0.92.4 5da689c313, 2019-01-14"
   width="25"
   height="22.222219">
  <metadata
     id="metadata10">
    <rdf:RDF>
      <cc:Work
         rdf:about="">
        <dc:format>image/svg+xml</dc:format>
        <dc:type
           rdf:resource="http://purl.org/dc/dcmitype/StillImage" />
      </cc:Work>
    </rdf:RDF>
  </metadata>
  <defs
     id="defs8" />
  <sodipodi:namedview
     pagecolor="#ffffff"
     bordercolor="#666666"
     borderopacity="1"
     objecttolerance="10"
     gridtolerance="10"
     guidetolerance="10"
     inkscape:pageopacity="0"
     inkscape:pageshadow="2"
     inkscape:window-width="1920"
     inkscape:window-height="1062"
     id="namedview6"
     showgrid="false"
     inkscape:zoom="5.2149125"
     inkscape:cx="-54.126737"
     inkscape:cy="-25.57949"
     inkscape:window-x="0"
     inkscape:window-y="0"
     inkscape:window-maximized="1"
     inkscape:current-layer="svg4" />
  <path
     d="M 12.5,0 C 9.4796007,0 7.03125,2.44835 7.03125,5.46875 c 0,2.44184 3.574219,6.89236 4.943576,8.50781 0.277344,0.32726 0.773438,0.32726 1.050348,0 C 14.394531,12.36111 17.96875,7.91059 17.96875,5.46875 17.96875,2.44835 15.520399,0 12.5,0 Z m 0,7.29166 c -1.006944,0 -1.822917,-0.81597 -1.822917,-1.82291 0,-1.00695 0.815973,-1.82292 1.822917,-1.82292 1.006944,0 1.822917,0.81597 1.822917,1.82292 0,1.00694 -0.815973,1.82291 -1.822917,1.82291 z M 0.87326389,9.37283 A 1.3891493,1.3891493 0 0 0 0,10.66232 v 10.86459 c 0,0.49132 0.49609375,0.82725 0.95225694,0.64496 L 6.9444444,19.44444 V 9.32812 C 6.5607639,8.63455 6.2469618,7.9592 6.0221354,7.31337 Z M 12.5,15.61067 c -0.610677,0 -1.188368,-0.26822 -1.584635,-0.73611 C 10.062066,13.86762 9.1545139,12.72092 8.3333333,11.5447 v 7.89931 l 8.3333337,2.77778 V 11.54514 C 15.845486,12.72092 14.938368,13.86805 14.084635,14.875 13.688368,15.34245 13.110677,15.61067 12.5,15.61067 Z M 24.047743,6.99479 18.055556,9.72222 v 12.5 l 6.07118,-2.42839 A 1.3887153,1.3887153 0 0 0 25,18.50434 V 7.63975 C 25,7.14844 24.503906,6.8125 24.047743,6.99479 Z"
     id="path2"
     inkscape:connector-curvature="0"
     style="stroke-width:0.04340278" />
  <path
     style="fill:#ffffff;fill-opacity:1;stroke-width:0.09416196"
     d="m 0.24011299,21.95857 c -0.18417693,-0.18418 -0.18832391,-0.31388 -0.18832391,-5.8898 0,-6.12781 -0.0125644,-5.96196 0.48540358,-6.40764 C 0.65863876,9.55243 1.9360283,8.99396 3.375836,8.42007 L 5.993668,7.37665 6.086762,7.629 c 0.051201,0.1388 0.2619931,0.61252 0.4684262,1.05273 l 0.3753329,0.80038 -0.025995,4.97129 -0.025995,4.97129 -2.9949587,1.3611 c -1.6472272,0.74861 -3.09849842,1.3611 -3.22504712,1.3611 -0.1265487,0 -0.31483433,-0.0847 -0.41841229,-0.18832 z"
     id="path817"
     inkscape:connector-curvature="0" />
  <path
     style="fill:#ffffff;fill-opacity:1;stroke-width:0.09416196"
     d="M 12.410546,20.76626 8.3380412,19.4005 v -3.86849 c 0,-2.12767 0.016753,-3.85083 0.037228,-3.82925 0.020475,0.0216 0.3031771,0.3994 0.6282266,0.83961 1.3093542,1.77323 2.0670702,2.6206 2.5653692,2.86891 0.874955,0.43601 1.729378,0.27524 2.469089,-0.46459 0.393802,-0.39386 1.246191,-1.44865 2.369244,-2.93181 l 0.206633,-0.27289 0.0052,5.20245 c 0.0029,2.86135 -0.02655,5.1991 -0.06539,5.19502 -0.03884,-0.004 -1.903248,-0.62203 -4.143126,-1.3732 z"
     id="path819"
     inkscape:connector-curvature="0" />
  <path
     style="fill:#ffffff;fill-opacity:1;stroke-width:0.09416196"
     d="M 18.130885,15.94231 V 9.74049 l 3.036723,-1.37883 c 1.670198,-0.75835 3.101448,-1.37792 3.180555,-1.37683 0.07911,0.001 0.238006,0.0679 0.353108,0.14857 l 0.209275,0.14658 v 5.7903 c 0,6.13905 0.0055,6.0584 -0.437629,6.45566 -0.142088,0.12739 -2.137792,0.95385 -5.894762,2.44114 l -0.44727,0.17706 z"
     id="path821"
     inkscape:connector-curvature="0" />
  <path
     style="fill:#ffffff;fill-opacity:1;stroke-width:0.09416196"
     d="M 11.702025,13.55461 C 10.436306,12.1014 8.7849123,9.74471 8.0148993,8.29275 6.9061441,6.20206 6.8238633,4.66365 7.7289601,2.94653 8.1789631,2.0928 8.6938798,1.52178 9.49977,0.98277 c 1.766632,-1.1816 3.954475,-1.23561 5.793711,-0.14304 1.613032,0.95819 2.784683,3.12751 2.613455,4.83882 -0.146584,1.46501 -1.28672,3.57738 -3.501413,6.48717 -1.770287,2.32591 -1.851178,2.36747 -2.703498,1.38889 z M 13.485214,7.02986 C 13.989336,6.73445 14.270041,6.27317 14.336288,5.6313 14.507047,3.9768 12.553626,2.98336 11.297772,4.08602 10.695109,4.61517 10.511509,5.2492 10.73906,6.01545 c 0.159565,0.53731 0.707695,1.11467 1.151221,1.21262 0.143726,0.0317 0.303693,0.0737 0.355482,0.0933 0.210506,0.0796 0.871355,-0.0758 1.239451,-0.29153 z"
     id="path823"
     inkscape:connector-curvature="0" />
</svg>
