<?xml version="1.0" encoding="UTF-8" standalone="no"?>
<svg
   xmlns:dc="http://purl.org/dc/elements/1.1/"
   xmlns:cc="http://creativecommons.org/ns#"
   xmlns:rdf="http://www.w3.org/1999/02/22-rdf-syntax-ns#"
   xmlns:svg="http://www.w3.org/2000/svg"
   xmlns="http://www.w3.org/2000/svg"
   xmlns:sodipodi="http://sodipodi.sourceforge.net/DTD/sodipodi-0.dtd"
   xmlns:inkscape="http://www.inkscape.org/namespaces/inkscape"
   viewBox="0 0 25.791001 25.790989"
   version="1.1"
   id="svg4"
   sodipodi:docname="phone_r.svg"
   inkscape:version="0.92.4 5da689c313, 2019-01-14"
   width="25.791"
   height="25.790989">
  <metadata
     id="metadata10">
    <rdf:RDF>
      <cc:Work
         rdf:about="">
        <dc:format>image/svg+xml</dc:format>
        <dc:type
           rdf:resource="http://purl.org/dc/dcmitype/StillImage" />
        <dc:title />
      </cc:Work>
    </rdf:RDF>
  </metadata>
  <defs
     id="defs8" />
  <sodipodi:namedview
     pagecolor="#ffffff"
     bordercolor="#666666"
     borderopacity="1"
     objecttolerance="10"
     gridtolerance="10"
     guidetolerance="10"
     inkscape:pageopacity="0"
     inkscape:pageshadow="2"
     inkscape:window-width="1920"
     inkscape:window-height="1062"
     id="namedview6"
     showgrid="false"
     inkscape:zoom="5.2149125"
     inkscape:cx="-99.920395"
     inkscape:cy="28.274837"
     inkscape:window-x="0"
     inkscape:window-y="0"
     inkscape:window-maximized="1"
     inkscape:current-layer="svg4" />
  <path
     d="m 25.055486,18.22483 -5.64188,-2.417953 a 1.2089741,1.2089741 0 0 0 -1.41047,0.347581 L 15.50459,19.20712 A 18.671598,18.671598 0 0 1 6.5788345,10.281365 L 9.6314938,7.7828178 a 1.2059517,1.2059517 0 0 0 0.3475807,-1.41047 L 7.561126,0.73046778 A 1.2170339,1.2170339 0 0 0 6.1758429,0.03026978 L 0.93695497,1.2392458 A 1.2089741,1.2089741 0 0 0 3.0481191e-8,2.4174918 C 3.0481191e-8,15.3384 10.472739,25.790988 23.3735,25.790988 a 1.2089741,1.2089741 0 0 0 1.17875,-0.936953 l 1.208974,-5.238889 A 1.2235826,1.2235826 0 0 0 25.055486,18.22483 Z"
     id="path2"
     inkscape:connector-curvature="0"
     style="stroke-width:0.05037393" />
  <path
     style="fill:#ffffff;fill-opacity:1;stroke-width:0.1092858"
     d="M 20.586225,25.576144 C 17.646594,25.240887 14.197297,24.070589 11.562438,22.514504 8.2786986,20.575201 5.2093588,17.512929 3.3034722,14.27455 1.2763282,10.830141 0.08742867,6.6589218 0.08742867,2.9911628 c 0,-0.80207 0.03777235,-1.021162 0.2148675,-1.246305 0.29405799,-0.373831 0.44887336,-0.42328 3.52592143,-1.12621702 l 2.7025746,-0.617394 0.4120709,0.201325 c 0.3991198,0.195 0.4542968,0.299217 1.7555529,3.31597402 1.390855,3.22447 1.479839,3.549867 1.0969364,4.011238 -0.1143223,0.137746 -2.6022891,2.21127 -3.128758,2.6075692 -0.1292079,0.09726 -0.09146,0.241487 0.2305629,0.880936 1.5865909,3.150555 4.7249927,6.288954 7.8755437,7.875545 0.639451,0.32202 0.783678,0.359772 0.880937,0.230561 0.598388,-0.794939 2.52621,-3.0678 2.713129,-3.198725 0.131228,-0.09191 0.362894,-0.166869 0.514815,-0.16657 0.15192,3.54e-4 1.677809,0.602738 3.390864,1.338751 3.019125,1.297164 3.12082,1.350842 3.31597,1.750278 l 0.201326,0.412071 -0.61739,2.702574 c -0.702937,3.077048 -0.752388,3.231861 -1.126222,3.525919 -0.235778,0.185464 -0.431914,0.212912 -1.433243,0.200572 -0.638047,-0.0079 -1.550045,-0.05877 -2.026662,-0.113121 z"
     id="path817"
     inkscape:connector-curvature="0" />
</svg>